<?xml version="1.0" encoding="UTF-8" standalone="no"?>
<!DOCTYPE svg PUBLIC "-//W3C//DTD SVG 1.1//EN"
 "http://www.w3.org/Graphics/SVG/1.1/DTD/svg11.dtd">
<!-- Generated by graphviz version 2.47.3 (0)
 -->
<!-- Pages: 1 -->
<svg width="1492pt" height="188pt"
 viewBox="0.00 0.00 1491.74 188.00" xmlns="http://www.w3.org/2000/svg" xmlns:xlink="http://www.w3.org/1999/xlink">
<g id="graph0" class="graph" transform="scale(1 1) rotate(0) translate(4 184)">
<polygon fill="white" stroke="transparent" points="-4,4 -4,-184 1487.74,-184 1487.74,4 -4,4"/>
<!-- 1 -->
<g id="node1" class="node">
<title>1</title>
<polygon fill="none" stroke="black" stroke-dasharray="1,5" points="889,-180 834,-180 834,-144 889,-144 889,-180"/>
<text text-anchor="middle" x="861.5" y="-158.3" font-family="Times,serif" font-size="14.00">Album</text>
</g>
<!-- 5 -->
<g id="node5" class="node">
<title>5</title>
<ellipse fill="#59a14f" stroke="black" cx="188.5" cy="-90" rx="79.09" ry="18"/>
<text text-anchor="middle" x="188.5" y="-86.3" font-family="Times,serif" font-size="14.00" fill="#ffffff">artist_album_count</text>
</g>
<!-- 1&#45;&gt;5 -->
<g id="edge1" class="edge">
<title>1&#45;&gt;5</title>
<path fill="none" stroke="black" d="M833.67,-156.42C810.01,-152.65 775.1,-147.4 744.5,-144 537.15,-120.99 483.25,-135.83 276.5,-108 269.39,-107.04 262,-105.88 254.64,-104.62"/>
<polygon fill="black" stroke="black" points="255.13,-101.15 244.67,-102.84 253.9,-108.04 255.13,-101.15"/>
</g>
<!-- 6 -->
<g id="node6" class="node">
<title>6</title>
<ellipse fill="#edc948" stroke="black" cx="417.5" cy="-90" rx="131.88" ry="18"/>
<text text-anchor="middle" x="417.5" y="-86.3" font-family="Times,serif" font-size="14.00" fill="#000000">artist_album_count_via_mustache</text>
</g>
<!-- 1&#45;&gt;6 -->
<g id="edge2" class="edge">
<title>1&#45;&gt;6</title>
<path fill="none" stroke="black" d="M833.72,-156.62C770.33,-146.63 612.62,-121.76 510.55,-105.67"/>
<polygon fill="black" stroke="black" points="510.97,-102.19 500.55,-104.09 509.88,-109.11 510.97,-102.19"/>
</g>
<!-- 7 -->
<g id="node7" class="node">
<title>7</title>
<ellipse fill="#b07aa1" stroke="black" cx="708.5" cy="-90" rx="141.07" ry="18"/>
<text text-anchor="middle" x="708.5" y="-86.3" font-family="Times,serif" font-size="14.00" fill="#ffffff">artist_album_count_via_mustache_2</text>
</g>
<!-- 1&#45;&gt;7 -->
<g id="edge3" class="edge">
<title>1&#45;&gt;7</title>
<path fill="none" stroke="black" d="M833.79,-148.32C811.47,-138.11 779.64,-123.55 753.65,-111.66"/>
<polygon fill="black" stroke="black" points="754.92,-108.39 744.37,-107.41 752.01,-114.76 754.92,-108.39"/>
</g>
<!-- 9 -->
<g id="node9" class="node">
<title>9</title>
<ellipse fill="#f28e2b" stroke="black" cx="941.5" cy="-90" rx="74.19" ry="18"/>
<text text-anchor="middle" x="941.5" y="-86.3" font-family="Times,serif" font-size="14.00" fill="#000000">artist_track_count</text>
</g>
<!-- 1&#45;&gt;9 -->
<g id="edge4" class="edge">
<title>1&#45;&gt;9</title>
<path fill="none" stroke="black" d="M881.27,-143.7C891.4,-134.84 903.87,-123.92 914.84,-114.33"/>
<polygon fill="black" stroke="black" points="917.28,-116.84 922.5,-107.62 912.67,-111.57 917.28,-116.84"/>
</g>
<!-- 11 -->
<g id="node11" class="node">
<title>11</title>
<ellipse fill="#76b7b2" stroke="black" cx="1129.5" cy="-90" rx="95.58" ry="18"/>
<text text-anchor="middle" x="1129.5" y="-86.3" font-family="Times,serif" font-size="14.00" fill="#000000">artist_track_count_view</text>
</g>
<!-- 1&#45;&gt;11 -->
<g id="edge5" class="edge">
<title>1&#45;&gt;11</title>
<path fill="none" stroke="black" d="M889.17,-153.77C930.61,-142.95 1009.93,-122.23 1066.09,-107.56"/>
<polygon fill="black" stroke="black" points="1067.15,-110.9 1075.94,-104.99 1065.38,-104.13 1067.15,-110.9"/>
</g>
<!-- 12 -->
<g id="node12" class="node">
<title>12</title>
<ellipse fill="#59a14f" stroke="black" cx="1363.5" cy="-90" rx="120.48" ry="18"/>
<text text-anchor="middle" x="1363.5" y="-86.3" font-family="Times,serif" font-size="14.00" fill="#ffffff">popular_tracks_for_pink_floyd</text>
</g>
<!-- 1&#45;&gt;12 -->
<g id="edge6" class="edge">
<title>1&#45;&gt;12</title>
<path fill="none" stroke="black" d="M889.2,-157.14C960.3,-147.22 1151.83,-120.52 1268.6,-104.23"/>
<polygon fill="black" stroke="black" points="1269.19,-107.68 1278.61,-102.84 1268.23,-100.75 1269.19,-107.68"/>
</g>
<!-- 2 -->
<g id="node2" class="node">
<title>2</title>
<polygon fill="none" stroke="black" stroke-dasharray="1,5" points="735.5,-180 681.5,-180 681.5,-144 735.5,-144 735.5,-180"/>
<text text-anchor="middle" x="708.5" y="-158.3" font-family="Times,serif" font-size="14.00">Artist</text>
</g>
<!-- 2&#45;&gt;5 -->
<g id="edge7" class="edge">
<title>2&#45;&gt;5</title>
<path fill="none" stroke="black" d="M681.11,-158.3C612.68,-151.41 428.76,-132.02 276.5,-108 269.78,-106.94 262.8,-105.75 255.83,-104.5"/>
<polygon fill="black" stroke="black" points="256.14,-101 245.67,-102.64 254.88,-107.88 256.14,-101"/>
</g>
<!-- 2&#45;&gt;6 -->
<g id="edge8" class="edge">
<title>2&#45;&gt;6</title>
<path fill="none" stroke="black" d="M681.38,-154.48C637.99,-144.04 551.51,-123.24 489.37,-108.29"/>
<polygon fill="black" stroke="black" points="490.15,-104.88 479.61,-105.94 488.52,-111.68 490.15,-104.88"/>
</g>
<!-- 2&#45;&gt;7 -->
<g id="edge9" class="edge">
<title>2&#45;&gt;7</title>
<path fill="none" stroke="black" d="M708.5,-143.7C708.5,-135.98 708.5,-126.71 708.5,-118.11"/>
<polygon fill="black" stroke="black" points="712,-118.1 708.5,-108.1 705,-118.1 712,-118.1"/>
</g>
<!-- 8 -->
<g id="node8" class="node">
<title>8</title>
<ellipse fill="#4e79a7" stroke="black" cx="45.5" cy="-90" rx="45.49" ry="18"/>
<text text-anchor="middle" x="45.5" y="-86.3" font-family="Times,serif" font-size="14.00" fill="#ffffff">artist_hex</text>
</g>
<!-- 2&#45;&gt;8 -->
<g id="edge10" class="edge">
<title>2&#45;&gt;8</title>
<path fill="none" stroke="black" d="M681.24,-160.68C595.16,-159.24 321.72,-151.32 100.5,-108 96.58,-107.23 92.55,-106.29 88.53,-105.25"/>
<polygon fill="black" stroke="black" points="89.23,-101.81 78.65,-102.49 87.34,-108.55 89.23,-101.81"/>
</g>
<!-- 2&#45;&gt;9 -->
<g id="edge11" class="edge">
<title>2&#45;&gt;9</title>
<path fill="none" stroke="black" d="M735.68,-152.83C772.55,-141.76 839.26,-121.72 886.73,-107.45"/>
<polygon fill="black" stroke="black" points="887.98,-110.73 896.55,-104.5 885.96,-104.03 887.98,-110.73"/>
</g>
<!-- 2&#45;&gt;11 -->
<g id="edge12" class="edge">
<title>2&#45;&gt;11</title>
<path fill="none" stroke="black" d="M735.79,-156.46C798.44,-146.04 954.5,-120.1 1050.25,-104.18"/>
<polygon fill="black" stroke="black" points="1050.9,-107.62 1060.19,-102.52 1049.75,-100.71 1050.9,-107.62"/>
</g>
<!-- 2&#45;&gt;12 -->
<g id="edge13" class="edge">
<title>2&#45;&gt;12</title>
<path fill="none" stroke="black" d="M735.63,-156.57C759.1,-152.85 793.97,-147.57 824.5,-144 1006.18,-122.73 1052.66,-127.95 1234.5,-108 1245.44,-106.8 1256.89,-105.44 1268.26,-104.03"/>
<polygon fill="black" stroke="black" points="1268.73,-107.49 1278.21,-102.77 1267.85,-100.55 1268.73,-107.49"/>
</g>
<!-- 3 -->
<g id="node3" class="node">
<title>3</title>
<polygon fill="none" stroke="black" stroke-dasharray="1,5" points="1404.5,-180 1322.5,-180 1322.5,-144 1404.5,-144 1404.5,-180"/>
<text text-anchor="middle" x="1363.5" y="-158.3" font-family="Times,serif" font-size="14.00">InvoiceLine</text>
</g>
<!-- 3&#45;&gt;12 -->
<g id="edge14" class="edge">
<title>3&#45;&gt;12</title>
<path fill="none" stroke="black" d="M1363.5,-143.7C1363.5,-135.98 1363.5,-126.71 1363.5,-118.11"/>
<polygon fill="black" stroke="black" points="1367,-118.1 1363.5,-108.1 1360,-118.1 1367,-118.1"/>
</g>
<!-- 4 -->
<g id="node4" class="node">
<title>4</title>
<polygon fill="none" stroke="black" stroke-dasharray="1,5" points="1156.5,-180 1102.5,-180 1102.5,-144 1156.5,-144 1156.5,-180"/>
<text text-anchor="middle" x="1129.5" y="-158.3" font-family="Times,serif" font-size="14.00">Track</text>
</g>
<!-- 4&#45;&gt;9 -->
<g id="edge15" class="edge">
<title>4&#45;&gt;9</title>
<path fill="none" stroke="black" d="M1102.16,-150.82C1072.84,-139.9 1025.68,-122.35 990.03,-109.07"/>
<polygon fill="black" stroke="black" points="990.89,-105.66 980.3,-105.45 988.45,-112.22 990.89,-105.66"/>
</g>
<!-- 4&#45;&gt;11 -->
<g id="edge16" class="edge">
<title>4&#45;&gt;11</title>
<path fill="none" stroke="black" d="M1129.5,-143.7C1129.5,-135.98 1129.5,-126.71 1129.5,-118.11"/>
<polygon fill="black" stroke="black" points="1133,-118.1 1129.5,-108.1 1126,-118.1 1133,-118.1"/>
</g>
<!-- 4&#45;&gt;12 -->
<g id="edge17" class="edge">
<title>4&#45;&gt;12</title>
<path fill="none" stroke="black" d="M1156.8,-152.83C1192.25,-142.23 1255.17,-123.41 1302.31,-109.3"/>
<polygon fill="black" stroke="black" points="1303.53,-112.59 1312.11,-106.37 1301.52,-105.89 1303.53,-112.59"/>
</g>
<!-- 10 -->
<g id="node10" class="node">
<title>10</title>
<ellipse fill="#e15759" stroke="black" cx="941.5" cy="-18" rx="83.39" ry="18"/>
<text text-anchor="middle" x="941.5" y="-14.3" font-family="Times,serif" font-size="14.00" fill="#ffffff">artist_track_count_2</text>
</g>
<!-- 9&#45;&gt;10 -->
<g id="edge18" class="edge">
<title>9&#45;&gt;10</title>
<path fill="none" stroke="black" d="M941.5,-71.7C941.5,-63.98 941.5,-54.71 941.5,-46.11"/>
<polygon fill="black" stroke="black" points="945,-46.1 941.5,-36.1 938,-46.1 945,-46.1"/>
</g>
</g>
</svg>
