<svg width="1590" height="751" viewBox="0 0 1590 751" fill="none" xmlns="http://www.w3.org/2000/svg">
<g opacity="0.3">
<path d="M519.107 656.01C641.943 699.731 791.782 746.485 903.279 746.485C975.335 746.485 1031.42 726.957 1053.84 674.477C1077.84 618.205 1051.26 583.205 1027.78 552.339C1020.24 542.404 1013.11 533 1007.91 523.293C993.425 497.584 991.225 475.363 1001.43 457.238C1038.4 391.41 1230.07 384.926 1356.89 380.641C1417.72 378.594 1465.77 376.963 1482.15 369.834C1546.74 341.85 1589.71 269.652 1589.1 190.173C1588.46 109.405 1542.07 42.0989 1465.05 10.1709C1369.22 -29.5684 1226.51 54.4605 1088.54 135.683C973.059 203.672 853.636 273.937 768.079 266.201C710.131 260.93 627.987 221.419 532.911 175.688C393.767 108.761 237.216 33.4912 95.5693 33.4912C86.5433 33.4912 77.5174 33.7946 68.6052 34.4392C44.8646 35.956 21.9584 41.6438 0.0761719 50.2136V56.3186C22.0722 47.4834 45.0922 41.6438 68.9844 40.1271H69.0224C77.8208 39.4825 86.6571 39.1791 95.6072 39.1791C235.965 39.1791 391.871 114.145 530.408 180.769C626.015 226.727 708.576 266.467 767.548 271.813C854.926 279.738 969.798 212.128 1091.42 140.537C1228.21 59.9967 1369.67 -23.2738 1462.89 15.3659C1537.75 46.3837 1582.8 111.756 1583.45 190.173C1584.06 267.415 1542.45 337.489 1479.95 364.601C1464.52 371.275 1416.96 372.906 1356.74 374.915C1220.97 379.504 1035.07 385.798 996.497 454.432C985.271 474.415 987.433 498.532 1002.94 526.023C1008.33 536.072 1015.61 545.627 1023.27 555.752C1046.9 586.846 1071.32 619.001 1048.6 672.202C1025.43 726.464 964.147 748.23 861.297 738.826C777.522 731.166 666.215 702.309 521.003 650.626C398.925 607.17 239.492 662.191 85.2918 715.354C56.5074 725.288 27.9884 735.072 0.0761719 744.134V750.126C28.5952 740.911 57.683 730.901 87.1122 720.738C240.402 667.879 398.925 613.237 519.107 656.01Z" fill="#0CC6FF"/>
<path d="M522.141 645.658C661.588 695.294 768.838 723.013 849.995 730.408C950.115 739.508 1012.46 716.908 1035.33 663.177C1057.97 609.9 1032.94 576.532 1010.83 547.068C1003.25 536.944 996.079 527.388 991.111 517.454C977.535 493.034 975.6 471.913 985.347 454.659C1020.84 391.941 1203.52 385.798 1324.43 381.741C1383.1 379.769 1429.44 378.214 1445.44 371.275C1507.41 344.428 1548.64 275.15 1548.03 198.895C1547.42 121.426 1502.94 56.8496 1429.02 26.2109C1337.09 -11.8979 1200.26 68.6424 1067.95 146.566C957.245 211.749 842.79 279.132 760.798 271.662C705.352 266.618 626.736 228.851 535.717 185.092C393.122 116.534 231.452 38.838 88.667 50.2137C57.4933 52.2234 27.7607 61.7791 0.0760101 75.885V82.2554C27.8745 67.7703 57.7587 57.9113 89.0841 55.9395H89.122C98.4514 55.1811 107.819 54.8399 117.3 54.8399C251.551 54.8399 400.669 126.545 533.29 190.287C624.801 234.273 703.835 272.268 760.305 277.387C764.818 277.805 769.406 277.994 774.109 277.994C856.025 277.994 960.582 216.451 1070.87 151.534C1201.97 74.3303 1337.59 -5.48952 1426.9 31.5575C1498.61 61.2861 1541.81 123.891 1542.38 199.008C1542.95 272.989 1503.13 340.144 1443.21 366.118C1428.19 372.64 1380.02 374.233 1324.24 376.129C1194.76 380.49 1017.47 386.443 980.417 451.929C969.608 471.003 971.542 493.982 986.067 520.184C991.225 530.498 998.545 540.243 1006.28 550.557C1028.47 580.172 1051.45 610.773 1030.1 661.015C1007.99 712.927 949.243 733.782 850.488 724.795C769.824 717.439 663.029 689.834 523.999 640.387C406.965 598.714 254.054 651.46 106.188 702.423C70.122 714.861 34.5112 727.146 0.0380859 737.802V743.755C35.118 732.948 71.3356 720.473 108.046 707.808C255.003 657.072 406.927 604.668 522.141 645.658Z" fill="#18C1FF"/>
<path d="M525.173 635.344C658.476 682.781 761.213 709.249 839.261 716.302C935.285 724.985 995.053 703.296 1016.9 651.915C1038.21 601.596 1014.66 569.82 993.878 541.798C986.255 531.522 979.087 521.852 974.385 511.652C961.718 488.484 960.049 468.462 969.379 452.157C1003.4 392.586 1177.13 386.784 1292.08 382.917C1348.62 381.021 1393.26 379.542 1408.84 372.792C1468.2 347.083 1507.67 280.762 1507.07 207.73C1506.5 133.522 1463.87 71.714 1393.11 42.4024C1305.08 5.92421 1174.13 83.0139 1047.46 157.563C941.58 219.902 832.055 284.403 753.628 277.236C700.648 272.42 625.596 236.359 538.636 194.572C401.388 128.631 245.861 53.892 108.765 66.0261C69.7789 68.5288 33.0683 83.5827 0.0742188 104.59V111.643C35.4954 88.4742 72.3198 74.065 109.182 71.714H109.258C119.08 70.8418 128.979 70.4247 138.991 70.4247C267.136 70.4247 409.504 138.831 536.209 199.729C623.624 241.744 699.169 278.032 753.135 282.924C757.458 283.303 761.858 283.492 766.333 283.492C844.76 283.492 944.804 224.604 1050.38 162.455C1175.84 88.588 1305.54 12.2188 1390.94 47.6353C1459.51 76.0747 1500.81 135.949 1501.38 207.768C1501.95 278.525 1463.83 342.722 1406.57 367.559C1391.97 373.892 1345.59 375.446 1291.85 377.229C1168.67 381.324 999.984 386.974 964.373 449.313C954.02 467.476 955.688 489.356 969.265 514.193C974.119 524.734 981.477 534.669 989.289 545.173C1010.15 573.271 1031.69 602.355 1011.66 649.678C990.616 699.238 934.375 719.146 839.792 710.614C762.237 703.599 659.955 677.245 527.107 629.96C415.041 590.069 268.729 640.539 127.196 689.341C83.6592 704.357 40.8807 719.108 0.0742188 730.825V736.74C41.4874 724.91 84.9106 709.969 129.054 694.726C269.639 646.265 415.003 596.136 525.173 635.344Z" fill="#24BCFF"/>
<path d="M528.207 625.03C655.329 670.268 753.552 695.522 828.491 702.234C920.457 710.462 977.608 689.758 998.429 640.691C1018.41 593.254 996.305 563.07 976.774 536.451C969.151 526.061 961.984 516.278 957.698 506.116L957.585 505.888C945.866 484.009 944.425 465.087 953.299 449.654C985.838 393.192 1150.62 387.732 1259.65 384.13C1314.03 382.31 1357 380.907 1372.17 374.347C1428.87 349.775 1466.6 286.374 1466.07 216.603C1465.5 145.694 1424.81 86.616 1357.15 58.5937C1273.04 23.7081 1147.93 97.3471 1026.99 168.559C925.88 228.092 821.285 289.673 746.423 282.848C695.945 278.259 624.382 243.905 541.518 204.09C409.656 140.689 260.196 68.9077 128.865 81.8381C85.0624 84.6442 41.3358 105.083 0.0742188 137.238V144.291C41.4495 111.339 85.3278 90.332 129.282 87.526H129.396C139.673 86.5022 150.102 86.0472 160.607 86.0472C282.647 86.0472 418.302 151.192 539.091 209.209C622.448 249.251 694.428 283.834 745.93 288.498C822.688 295.475 923.301 236.207 1029.87 173.451C1149.63 102.959 1273.49 30.0406 1354.99 63.8265C1421.44 91.3559 1459.81 147.059 1460.38 216.641C1460.91 284.175 1424.55 345.452 1369.93 369.114C1355.75 375.257 1311.15 376.735 1259.5 378.442C1142.62 382.31 982.539 387.618 948.407 446.81C938.471 464.025 939.874 484.767 952.541 508.467C957.054 519.198 964.411 529.246 972.223 539.864C991.754 566.521 1011.97 594.05 993.195 638.529C956.978 723.885 805.546 717.743 530.141 619.721C423.081 581.613 283.33 629.808 148.168 676.411C97.0085 694.043 46.8727 711.334 0.112143 723.279V729.156C47.5174 717.136 98.26 699.655 150.027 681.795C284.24 635.458 423.005 587.604 528.207 625.03Z" fill="#31B7FF"/>
<path d="M531.241 614.678C797.317 709.362 944.083 714.178 979.96 629.391C998.694 584.798 977.95 556.207 959.632 530.99C952.047 520.525 944.842 510.628 941.012 500.352L940.86 500.048C929.9 479.117 928.724 461.788 937.295 447.075C968.355 393.761 1118 388.831 1227.26 385.229C1279.48 383.523 1320.75 382.158 1335.54 375.749C1389.62 352.315 1425.61 291.872 1425.08 225.324C1424.55 157.714 1385.71 101.366 1321.24 74.6332C1241.03 41.3781 1121.8 111.566 1006.51 179.442C910.179 236.169 810.476 294.792 739.255 288.308C691.243 283.947 623.207 251.261 544.4 213.455C417.923 152.747 274.532 83.9613 148.965 97.6122C97.8428 100.911 46.8348 129.73 0.0742188 173.488V181.072C46.9106 136.214 98.1462 106.561 149.382 103.3H149.496C160.228 102.125 171.112 101.556 182.148 101.556C298.12 101.556 427.025 163.44 541.935 218.612C621.235 256.683 689.726 289.559 738.724 293.996C742.668 294.337 746.688 294.526 750.784 294.526C822.233 294.526 913.289 240.909 1009.39 184.333C1123.5 117.178 1241.48 47.7106 1319.08 79.866C1382.34 106.068 1418.89 159.117 1419.43 225.362C1419.92 289.635 1385.33 347.992 1333.3 370.516C1319.53 376.47 1276.72 377.911 1227.11 379.503C1116.52 383.143 965.055 388.111 932.403 444.155C922.922 460.423 924.059 480.065 935.74 502.475C939.874 513.396 947.231 523.558 955.043 534.289C973.323 559.468 992.209 585.518 974.726 627.153C940.291 708.604 795.838 702.764 533.175 609.293C431.121 572.967 297.931 618.925 169.102 663.328C109.979 683.729 52.2958 703.56 0.0742188 714.481V720.283C52.9785 709.362 111.23 689.303 170.961 668.713C298.841 624.651 431.083 579.034 531.241 614.678Z" fill="#3DB2FF"/>
<path d="M534.276 604.364C667.769 651.876 769.672 675.614 841.235 675.576C905.516 675.576 945.337 656.427 961.454 618.128C978.938 576.303 959.482 549.267 942.341 525.454C934.756 514.95 927.626 505.015 924.213 494.626L924.061 494.208C914.011 474.566 913.101 458.299 921.217 444.496C950.836 394.292 1091.88 389.703 1194.84 386.366C1244.9 384.736 1284.45 383.447 1298.83 377.228C1350.29 354.931 1384.54 297.408 1384.04 234.121C1383.55 169.772 1346.61 116.192 1285.25 90.7486C1208.95 59.124 1095.59 125.862 985.954 190.362C894.405 244.245 799.708 299.987 732.013 293.844C686.466 289.71 621.919 258.73 547.208 222.859C426.154 164.805 288.907 98.9391 169.066 113.424C110.322 117.216 51.5771 157.069 0.0760101 214.706V223.049C51.5392 163.97 110.587 122.828 169.483 119.074H169.635C180.823 117.709 192.162 117.064 203.615 117.064C313.52 117.064 435.711 175.687 544.743 228.016C619.985 264.115 684.949 295.285 731.52 299.531C735.275 299.873 739.105 300.024 742.973 300.024C810.933 300.024 897.476 249.061 988.836 195.292C1097.26 131.474 1209.37 65.4565 1283.05 96.0193C1343.12 120.932 1377.82 171.289 1378.36 234.197C1378.85 295.247 1345.97 350.647 1296.59 372.033C1283.2 377.835 1242.17 379.162 1194.69 380.716C1090.4 384.091 947.536 388.755 916.325 441.653C907.261 457.01 908.133 475.514 918.904 496.635C922.62 507.746 929.977 517.984 937.752 528.791C954.818 552.528 972.49 577.062 956.221 615.967C938.586 657.83 888.526 675.462 807.444 668.371C739.219 662.38 650.514 639.704 536.173 599.017C439.124 564.473 312.496 608.156 190.038 650.36C122.533 673.642 57.0002 696.204 0.0380859 704.167V709.893C57.7587 701.968 123.823 679.216 191.859 655.744C313.444 613.843 439.124 570.502 534.276 604.364Z" fill="#49ACFF"/>
<path d="M537.308 594.05C663.975 639.136 760.72 661.66 828.68 661.622C889.852 661.622 927.7 643.383 943.022 606.905C959.291 567.772 941.087 542.329 925.045 519.881C917.536 509.339 910.407 499.404 907.524 488.976L907.335 488.483C898.195 470.131 897.512 454.925 905.211 442.033C933.351 394.937 1065.82 390.69 1162.53 387.581C1210.42 386.026 1248.27 384.812 1262.23 378.783C1311.08 357.624 1343.58 303.059 1343.08 242.995C1342.59 181.945 1307.55 131.095 1249.34 106.941C1176.94 76.9089 1069.42 140.196 965.473 201.397C878.702 252.475 788.973 305.296 724.844 299.456C681.8 295.551 620.742 266.277 550.051 232.34C440.071 179.594 303.24 113.956 189.126 129.237C122.19 133.56 55.0643 188.202 0.0742188 262.22V272.306C7.69698 261.765 15.5094 251.602 23.5114 241.971C62.0803 195.482 122.228 139.21 189.619 134.887L189.809 134.849C200.997 133.333 212.45 132.65 224.092 132.65C329.105 132.65 449.211 190.249 547.624 237.459C618.808 271.586 680.283 301.087 724.389 305.106C790.415 311.098 876.844 260.172 968.431 206.289C1071.17 145.808 1177.43 83.2414 1247.21 112.174C1304.1 135.759 1336.98 183.424 1337.43 242.995C1337.89 300.822 1306.79 353.264 1259.99 373.513C1247.02 379.125 1207.77 380.376 1162.38 381.855C1064.34 385.002 930.127 389.325 900.357 439.075C891.748 453.484 892.355 470.889 902.139 490.721C905.363 502.021 912.682 512.297 920.457 523.142C936.385 545.438 952.844 568.455 937.788 604.668C921.177 644.217 873.734 660.902 796.71 654.228C732.542 648.654 645.885 626.585 539.243 588.628C447.201 555.866 327.133 597.274 211.047 637.316C134.44 663.746 60.5633 689.152 0.112143 690.972V696.66C61.5114 694.84 135.881 669.244 212.905 642.701C328.043 603.037 447.163 561.971 537.308 594.05Z" fill="#55A7FF"/>
<path d="M233.841 629.733C342.683 592.193 455.204 553.401 540.382 583.699C641.412 619.646 723.897 640.578 785.486 645.81C861.145 652.295 907.943 635.383 924.592 595.605C939.648 559.127 922.658 535.2 907.678 514.117C900.207 503.613 893.153 493.679 890.801 483.251L890.574 482.644C882.344 465.543 881.889 451.437 889.171 439.454C915.869 395.468 1039.73 391.562 1130.14 388.718C1175.88 387.277 1212.02 386.14 1225.56 380.262C1271.79 360.241 1302.51 308.595 1302.05 251.754C1301.6 194.003 1268.45 145.884 1213.35 123.057C1144.86 94.6553 1043.22 154.492 944.957 212.318C862.965 260.59 778.167 310.491 717.64 304.993C677.061 301.315 619.492 273.71 552.821 241.744C447.961 191.501 317.501 128.934 209.19 145.012C144.605 149.183 86.9981 203.332 50.0599 248C32.4252 269.387 15.5489 293.352 0.0758484 318.871V330.095C56.8484 233.781 135.465 155.44 209.683 150.7L209.91 150.662C221.477 148.956 233.31 148.121 245.37 148.121C344.352 148.121 457.48 202.346 550.356 246.863C617.52 279.056 675.506 306.851 717.109 310.643C720.484 310.946 723.897 311.098 727.386 311.098C788.33 311.098 865.923 265.405 947.801 217.21C1044.89 160.066 1145.27 100.988 1211.15 128.29C1264.85 150.548 1295.87 195.558 1296.32 251.792C1296.74 306.358 1267.39 355.88 1223.24 375.03C1210.69 380.49 1173.26 381.665 1129.91 383.031C1038.17 385.95 912.532 389.894 884.241 436.534C876.049 450.034 876.39 466.263 885.227 484.843C887.881 496.295 895.201 506.571 902.937 517.454C917.766 538.31 933.087 559.886 919.245 593.482C890.498 662.267 763.642 657.186 542.202 578.39C455.166 547.41 341.659 586.543 231.906 624.386C156.817 650.285 84.4193 675.274 26.1677 675.236C17.1038 675.236 8.34332 674.591 0 673.302V679.065C8.34332 680.317 17.0659 680.924 26.0918 680.924C85.4053 680.924 158.296 655.783 233.841 629.733Z" fill="#61A2FF"/>
<path d="M254.773 616.764C357.244 581.423 463.242 544.869 543.376 573.422C755.638 648.957 877.64 652.673 906.083 584.419C920.001 550.481 904.149 528.109 890.155 508.391C882.76 497.963 875.782 488.104 874.037 477.638L873.81 476.918C866.49 461.106 866.263 448.024 873.127 436.951C898.385 396.112 1013.64 392.51 1097.79 389.894C1141.36 388.528 1175.76 387.467 1188.92 381.779C1232.5 362.895 1261.51 314.207 1261.09 260.589C1260.67 206.099 1229.39 160.748 1177.43 139.21C1112.85 112.439 1017.09 168.787 924.476 223.315C847.301 268.742 767.394 315.724 710.47 310.567C672.356 307.116 618.239 281.179 555.626 251.185C455.923 203.407 331.835 143.95 229.288 160.862C169.444 164.767 115.629 215.693 81.0044 257.745C50.2858 295.058 22.184 340.712 0.0742188 388.339V402.104C52.22 283.606 144.338 171.934 229.819 166.474L230.122 166.436C242.031 164.464 254.242 163.554 266.719 163.554C359.709 163.554 465.859 214.404 553.199 256.266C616.342 286.526 670.839 312.652 709.977 316.179C768.798 321.525 845.822 276.174 927.397 228.168C1018.79 174.361 1113.3 118.734 1175.27 144.405C1225.78 165.336 1254.99 207.692 1255.4 260.589C1255.82 311.932 1228.17 358.496 1186.68 376.508C1174.51 381.779 1138.9 382.878 1097.64 384.168C1012.2 386.822 895.161 390.462 868.311 433.918C860.536 446.469 860.612 461.599 868.538 478.89C870.586 490.455 877.868 500.731 885.566 511.614C899.333 531.067 913.592 551.164 900.888 582.182C873.848 647.099 754.235 642.321 545.348 568C463.318 538.802 356.372 575.659 252.953 611.341C153.705 645.582 59.4256 678.079 0.112143 646.265V652.673C17.4056 661.281 37.3158 664.959 59.1601 664.959C114.947 664.959 183.589 641.298 254.773 616.764Z" fill="#6D9DFF"/>
<path d="M16.9126 624.234C37.0503 642.018 62.6871 648.995 92.1163 648.995C144.528 648.995 208.961 626.775 275.783 603.758C371.921 570.616 471.32 536.337 546.486 563.07C746.195 634.131 860.992 637.544 887.69 573.119C900.471 541.722 885.68 520.829 872.672 502.438C865.353 492.124 858.451 482.379 857.351 471.951L857.313 471.496L857.123 471.079C850.714 456.556 850.714 444.535 857.123 434.373C880.94 396.643 987.62 393.382 1065.52 390.993C1106.89 389.742 1139.54 388.756 1152.33 383.182C1193.28 365.436 1220.55 319.667 1220.13 269.311C1219.72 218.12 1190.36 175.499 1141.55 155.25C1080.88 130.072 990.996 183.007 904.035 234.16C831.638 276.781 756.738 320.881 703.341 316.027C667.654 312.766 617.025 288.536 558.432 260.476C463.849 215.2 346.208 158.814 249.464 176.56C157.46 182.628 57.4156 318.151 13.7269 445.824C7.96245 462.585 3.44947 478.625 0.0742188 493.83V526.896C2.88061 503.272 9.21395 476.577 19.1122 447.645C62.232 321.677 160.342 187.974 249.919 182.286L250.26 182.248C262.472 180.011 275.025 178.949 287.881 178.949C374.879 178.949 474.127 226.462 555.929 265.633C615.053 293.958 666.099 318.378 702.81 321.715C705.806 321.98 708.84 322.132 711.949 322.132C765.916 322.132 834.52 281.748 906.956 239.127C992.664 188.657 1081.33 136.48 1139.39 160.559C1186.72 180.163 1214.07 219.864 1214.48 269.424C1214.86 317.544 1189 361.189 1150.09 378.025C1138.29 383.144 1104.5 384.168 1065.37 385.343C986.179 387.77 877.754 391.069 852.345 431.377C845.025 443.018 844.836 457.011 851.776 473.012C853.179 484.73 860.423 494.93 868.045 505.737C880.826 523.786 894.061 542.48 882.457 570.996C857.502 631.211 742.023 626.623 548.42 557.724C471.358 530.308 371.011 564.929 273.963 598.373C171.264 633.79 74.2919 667.234 20.7429 619.949C9.97243 610.432 3.10815 595.605 0.150067 576.532V598.752C4.05626 609.218 9.63112 617.826 16.9126 624.234Z" fill="#7998FF"/>
<path d="M1105.57 171.441C1048.79 147.893 964.753 197.34 883.519 245.194C815.9 285.009 745.93 326.151 696.136 321.639C662.914 318.605 615.736 296.043 561.088 269.879C471.662 227.106 360.355 173.83 269.451 192.41C184.88 197.984 92.2307 324.445 51.4622 443.625C24.1568 523.369 25.3324 583.963 54.6858 609.862C73.5341 626.509 97.5401 633.069 125.073 633.069C174.071 633.069 234.295 612.289 296.718 590.789C386.485 559.847 479.323 527.805 549.483 552.794C625.597 579.868 712.633 604.516 777.483 604.516C822.272 604.516 856.479 592.761 869.184 561.932C880.865 532.962 867.136 513.585 855 496.484C847.795 486.322 840.968 476.728 840.551 466.376L840.513 465.883L840.324 465.428C834.787 452.156 835.014 441.198 841.006 431.945C863.382 397.325 961.491 394.405 1033.13 392.282C1072.31 391.107 1103.25 390.196 1115.65 384.85C1153.99 368.241 1179.48 325.431 1179.14 278.297C1178.72 230.291 1151.23 190.362 1105.57 171.441ZM1113.38 379.503C1101.96 384.433 1069.99 385.381 1032.98 386.48C956.03 388.756 860.272 391.599 836.266 428.76C829.364 439.453 828.908 452.346 834.9 467.059C835.583 478.851 842.751 488.976 850.374 499.707C862.206 516.391 874.455 533.645 863.95 559.733C834.597 631.021 677.818 592.381 551.455 547.371C479.437 521.738 385.612 554.083 294.898 585.366C232.93 606.753 173.199 627.343 125.187 627.343C98.9433 627.343 76.1509 621.162 58.5161 605.577C31.4003 581.612 30.7935 521.776 56.8854 445.445C96.2128 330.512 188.9 203.255 270.057 198.06L270.437 198.022C282.914 195.482 295.77 194.306 308.93 194.306C389.974 194.306 482.319 238.52 558.623 275.036C613.726 301.428 661.359 324.217 695.605 327.326C747.296 332.028 814.876 292.251 886.402 250.123C966.46 202.99 1049.25 154.263 1103.4 176.712C1147.55 195.026 1173.07 231.998 1173.45 278.221C1173.75 323.08 1149.63 363.805 1113.38 379.503Z" fill="#8593FF"/>
<path d="M1069.62 187.556C1016.75 165.639 938.587 211.635 863.004 256.114C800.164 293.123 735.2 331.384 688.894 327.137C658.1 324.331 614.373 303.399 563.706 279.207C479.439 238.899 374.616 188.732 289.514 208.184C213.325 213.303 126.213 333.128 89.1607 441.387C63.9032 515.14 65.1168 571.298 92.4602 595.453C110.019 610.962 132.356 617.067 157.993 617.067C203.578 617.067 259.592 597.766 317.616 577.744C401.049 548.964 487.327 519.235 552.481 542.404C623.399 567.658 704.443 590.561 764.894 590.561C806.8 590.561 838.846 579.527 850.679 550.594C861.297 523.975 848.517 506.077 837.216 490.265C830.124 480.33 823.411 470.926 823.715 460.688V460.119L823.487 459.588C818.86 447.568 819.315 437.671 824.852 429.291C845.824 397.742 935.363 395.202 1000.71 393.306C1037.65 392.244 1066.85 391.41 1078.87 386.215C1114.59 370.744 1138.33 330.853 1137.99 286.98C1137.76 242.349 1112.13 205.189 1069.62 187.556ZM1076.71 380.982C1065.67 385.76 1035.56 386.632 1000.63 387.618C930.319 389.627 842.79 392.13 820.188 426.106C813.703 435.851 812.982 447.606 818.026 461.067C817.874 472.974 825.042 482.946 832.589 493.564C843.549 508.883 854.85 524.771 845.407 548.471C824.208 600.344 720.864 596.287 554.415 537.057C487.365 513.206 400.139 543.276 315.796 572.36C226.712 603.074 142.596 632.083 96.2146 591.206C71.0709 568.985 70.4262 513.699 94.546 443.245C131.029 336.616 216.169 218.574 290.083 213.872L290.538 213.796C303.205 210.876 316.327 209.587 329.79 209.587C404.88 209.587 490.399 250.502 561.241 284.364C612.363 308.822 656.545 329.943 688.363 332.862C736.451 337.261 799.329 300.252 865.848 261.044C940.218 217.247 1017.13 171.971 1067.38 192.827C1108.34 209.815 1132 244.132 1132.34 287.018C1132.76 328.653 1110.35 366.421 1076.71 380.982Z" fill="#918EFF"/>
<path d="M1033.66 203.71C984.665 183.423 912.381 225.968 842.487 267.111C784.425 301.276 724.429 336.655 681.688 332.749C653.321 330.17 613.008 310.907 566.323 288.573C487.251 250.768 388.8 203.71 309.576 224.035C240.63 228.699 161.103 339.309 126.895 439.226C103.686 507.025 104.899 558.747 130.233 581.081C146.54 595.453 167.209 601.103 190.949 601.103C233.121 601.103 284.887 583.243 338.588 564.738C415.688 538.157 495.367 510.666 555.515 532.09C646.798 564.587 804.07 608.725 832.21 539.332C841.804 514.988 829.934 498.531 819.429 484.008C812.451 474.301 805.852 465.163 806.952 455.076L807.028 454.431L806.8 453.825C803.008 443.056 803.691 434.221 808.848 426.713C828.417 398.273 909.385 396.074 968.509 394.443C1003.21 393.495 1030.63 392.737 1042.31 387.694C1075.38 373.36 1097.41 336.427 1097.07 295.778C1096.77 254.446 1073.07 220.053 1033.66 203.71ZM1040.07 382.499C1029.42 387.125 1001.12 387.883 968.357 388.793C904.683 390.538 825.383 392.699 804.184 423.527C798.116 432.325 797.13 442.98 801.263 455.152C800.239 467.096 807.331 476.955 814.878 487.383C824.966 501.375 835.433 515.86 826.976 537.285C816.585 562.88 784.691 573.801 732.128 569.744C687.112 566.255 626.736 551.429 557.487 526.743C495.481 504.674 414.816 532.469 336.768 559.392C254.51 587.755 176.766 614.564 134.025 576.835C110.512 556.055 109.867 506.608 132.281 441.084C166.071 342.342 245.636 233.818 310.183 229.685L310.714 229.609C323.494 226.31 336.844 224.831 350.572 224.831C419.746 224.831 498.477 262.447 563.82 293.73C610.998 316.292 651.728 335.782 681.12 338.437C725.68 342.494 783.78 308.253 845.293 272.04C913.974 231.581 985.044 189.794 1031.39 208.981C1069.16 224.641 1091 256.304 1091.31 295.853C1091.72 334.228 1071.09 369.037 1040.07 382.499Z" fill="#5761D7"/>
<path d="M997.71 219.826C952.619 201.131 886.213 240.226 822.008 278.032C768.724 309.391 713.582 341.812 674.52 338.247C648.58 335.896 611.642 318.226 568.902 297.825C494.987 262.523 403.021 218.574 329.638 239.809C269.869 243.98 196.107 344.997 164.63 437.027C143.468 498.835 144.719 546.12 168.043 566.71C183.061 579.944 202.099 585.177 223.943 585.177C262.702 585.177 310.258 568.796 359.56 551.77C430.289 527.388 503.444 502.172 558.586 521.776C626.395 545.892 787.004 594.846 813.778 528.108C822.387 505.964 811.351 490.91 801.604 477.638C794.437 467.855 788.255 459.437 790.151 449.502L790.303 448.819L790.075 448.137C787.155 438.619 788.028 430.808 792.768 424.21C810.972 398.88 880.449 397.098 936.235 395.657C967.409 394.86 994.335 394.178 1005.64 389.248C1036.09 376.053 1056.38 342.039 1056.08 304.613C1055.81 266.542 1033.97 234.88 997.71 219.826ZM1003.4 383.978C993.084 388.452 966.689 389.135 936.122 389.893C879.046 391.372 808.014 393.192 788.179 420.835C782.529 428.722 781.277 438.202 784.463 449.123C782.491 461.143 789.545 470.775 797.016 480.975C806.345 493.678 815.94 506.798 808.469 525.985C790.91 569.744 700.536 566.255 560.482 516.391C503.444 496.105 429.34 521.662 357.702 546.347C282.233 572.36 210.935 596.97 171.797 562.425C150.294 543.428 149.612 498.38 170.015 438.847C200.961 348.409 272.751 249.137 330.32 245.459L330.927 245.345C343.783 241.591 357.284 239.923 371.203 239.923C434.498 239.923 506.478 274.315 566.399 302.982C609.632 323.648 646.987 341.508 673.952 343.935C714.948 347.651 768.307 316.216 824.852 282.961C887.882 245.876 953.036 207.502 995.511 225.096C1030.1 239.43 1050.08 268.438 1050.39 304.651C1050.69 339.802 1031.8 371.692 1003.4 383.978Z" fill="#7777DB"/>
<path d="M961.758 235.979C920.572 218.916 860.045 254.56 801.49 289.028C753.023 317.581 702.849 347.045 667.314 343.859C643.763 341.736 610.2 325.696 571.366 307.154C502.647 274.316 417.166 233.477 349.661 255.659C296.909 259.413 230.958 351.216 202.326 434.865C183.212 490.72 184.463 533.531 205.815 552.339C219.543 564.435 236.951 569.213 256.899 569.213C292.244 569.213 335.591 554.273 380.494 538.764C444.889 516.543 511.446 493.602 561.582 511.462C623.701 533.569 770.885 578.389 795.27 516.847C802.931 496.825 792.692 483.174 783.628 471.116C776.612 461.75 770.506 453.635 773.274 443.966L773.502 443.246L773.312 442.487C771.189 434.221 772.288 427.395 776.65 421.632C793.526 399.373 854.774 397.932 903.999 396.795C932.973 396.112 958.003 395.505 968.963 390.765C996.8 378.707 1015.31 347.651 1015.04 313.448C1014.85 278.638 994.903 249.706 961.758 235.979ZM966.764 385.457C956.79 389.78 932.291 390.348 903.923 391.031C853.484 392.206 790.682 393.685 772.175 418.143C766.903 425.082 765.424 433.462 767.7 443.094C764.666 455.152 772.023 464.973 779.153 474.491C787.724 485.905 796.56 497.697 790.037 514.761C774.374 554.235 689.727 550.974 563.554 506.078C511.522 487.573 444.017 510.855 378.673 533.379C309.993 557.041 245.142 579.413 209.607 548.054C190.114 530.839 189.431 490.227 207.749 436.685C235.282 356.259 300.625 264.457 350.42 261.271L351.14 261.12C363.997 256.835 377.573 254.977 391.643 254.977C449.098 254.977 514.366 286.146 568.939 312.235C608.266 331.043 642.246 347.272 666.821 349.471C704.177 352.884 752.871 324.217 804.41 293.882C861.752 260.134 921.065 225.21 959.634 241.212C991.035 254.218 1009.2 280.534 1009.47 313.41C1009.69 345.338 992.514 374.308 966.764 385.457Z" fill="#7877DB"/>
<path d="M925.843 252.095C888.563 236.624 833.877 268.817 781.01 299.949C737.322 325.658 692.078 352.239 660.146 349.358C638.984 347.424 608.797 333.014 573.831 316.33C510.308 285.995 431.311 248.265 369.76 271.396C324.707 274.771 265.355 358.875 240.136 432.628C222.804 483.25 224.056 520.638 243.663 537.93C256.102 548.888 271.84 553.211 289.93 553.211C321.862 553.211 361 539.712 401.541 525.758C459.565 505.736 519.599 485.07 564.729 501.11C608.797 516.809 754.312 563.449 776.915 505.547C783.665 487.573 774.146 475.249 765.727 464.404C758.825 455.493 752.871 447.796 756.511 438.354L756.815 437.595L756.663 436.799C755.336 429.708 756.625 423.907 760.607 419.015C776.194 399.866 829.25 398.766 871.915 397.894C898.651 397.325 921.747 396.87 932.404 392.244C957.623 381.323 974.386 353.187 974.158 322.245C973.855 290.735 955.803 264.532 925.843 252.095ZM930.09 386.973C920.42 391.144 896.793 391.637 871.725 392.168C825.609 393.116 773.388 394.216 756.132 415.413C751.24 421.404 749.495 428.684 750.861 437.065C746.651 449.161 754.008 458.678 761.138 467.893C769.368 478.51 777.142 488.559 771.491 503.537C755.032 545.741 654.837 527.198 566.511 495.763C519.485 479.041 458.541 500.048 399.569 520.373C337.714 541.721 279.273 561.857 247.341 533.683C229.82 518.249 229.138 482.075 245.407 434.486C270.096 362.364 328.802 279.738 370.443 277.084L371.277 276.894C384.02 272.04 397.597 269.955 411.743 269.955C463.395 269.955 522.064 297.977 571.29 321.487C606.749 338.437 637.354 353.036 659.539 355.045C693.406 358.117 737.284 332.256 783.817 304.878C835.508 274.467 888.943 242.994 923.567 257.366C951.783 269.083 968.128 292.706 968.356 322.245C968.659 350.912 953.262 376.925 930.09 386.973Z" fill="#7877DB"/>
<path d="M889.893 268.21C856.52 254.37 807.711 283.113 760.533 310.907C721.623 333.811 681.348 357.51 652.98 354.931C634.17 353.225 607.282 340.371 576.146 325.506C517.856 297.674 445.383 263.053 389.787 287.208C353.266 290.203 299.754 366.383 277.834 430.429C262.589 474.984 263.878 508.049 281.437 523.558C292.587 533.417 306.695 537.247 322.888 537.247C351.407 537.247 386.297 525.226 422.477 512.751C474.168 494.929 527.603 476.5 567.727 490.796C649.453 519.88 742.444 536.071 758.41 494.284C764.288 478.245 755.452 467.248 747.639 457.579C739.827 447.871 735.276 441.501 739.637 432.78L740.016 432.059L739.941 431.263C739.372 425.347 740.851 420.494 744.491 416.398C758.827 400.321 803.729 399.6 839.795 398.994C864.218 398.576 885.342 398.235 895.733 393.723C918.336 383.94 933.354 358.761 933.126 331.042C932.899 302.831 916.743 279.359 889.893 268.21ZM893.458 388.452C884.091 392.509 862.512 392.889 839.681 393.23C800.543 393.874 756.21 394.595 740.206 412.531C735.693 417.612 733.645 423.793 734.138 430.921C728.601 443.018 735.997 452.194 743.164 461.105C750.711 470.471 757.803 479.306 753.062 492.275C739.486 527.805 651.122 514.419 569.623 485.411C527.603 470.471 473.22 489.203 420.581 507.367C365.515 526.364 313.521 544.3 285.192 519.273C269.453 505.395 268.77 474.491 283.22 432.287C306.619 363.88 359.826 294.83 390.659 292.858L391.152 292.82L391.607 292.63C404.122 287.132 417.623 284.781 431.693 284.781C477.619 284.781 529.765 309.694 573.681 330.663C605.31 345.755 632.615 358.799 652.45 360.619C682.713 363.35 721.889 340.295 763.416 315.837C809.418 288.763 856.975 260.74 887.731 273.519C912.761 283.909 927.248 304.878 927.438 331.08C927.627 356.486 913.975 379.579 893.458 388.452Z" fill="#7F71D9"/>
<path d="M853.939 284.364C824.472 272.154 781.542 297.447 740.015 321.866C705.883 341.964 670.614 362.743 645.773 360.468C629.314 358.989 605.688 347.689 578.344 334.645C525.326 309.315 459.338 277.804 409.771 303.021C381.1 305.789 334.188 373.778 315.529 428.23C302.37 466.718 303.659 495.46 319.208 509.149C329.068 517.871 341.545 521.283 355.843 521.283C380.949 521.283 411.629 510.704 443.41 499.745C488.729 484.123 535.604 467.931 570.759 480.444C645.546 507.064 726.855 518.174 739.939 482.985C744.983 468.803 736.754 459.096 729.51 450.526C721.887 441.539 717.45 435.586 722.722 427.13L723.139 426.485L723.177 425.727C723.859 400.852 768.458 400.397 807.824 400.018C829.858 399.79 848.933 399.601 859.135 395.164C879.083 386.519 892.395 364.26 892.205 339.802C891.939 314.927 877.642 294.185 853.939 284.364ZM856.822 389.931C847.682 393.913 828.265 394.102 807.748 394.292C766.183 394.709 719.119 395.202 717.526 424.779C710.51 436.875 718.285 446.052 725.225 454.204C732.089 462.319 738.612 469.979 734.668 481.013C722.987 512.372 642.55 499.897 572.731 475.06C535.717 461.902 487.895 478.397 441.627 494.323C393.35 510.969 347.803 526.668 323.038 504.864C309.348 492.768 308.589 466.187 320.991 430.05C340.673 372.564 386.827 310.149 410.795 308.633L411.402 308.595L411.933 308.329C424.069 302.035 437.342 299.418 451.298 299.418C491.574 299.418 537.272 321.26 575.955 339.726C603.791 353.036 627.835 364.526 645.318 366.08C672.017 368.507 706.49 348.22 742.973 326.72C783.287 302.983 825.003 278.449 851.854 289.559C873.698 298.622 886.365 316.937 886.516 339.802C886.592 362.061 874.722 382.196 856.822 389.931Z" fill="#7F71D9"/>
<path d="M817.988 300.479C792.427 289.9 755.375 311.703 719.499 332.824C690.145 350.078 659.806 367.937 638.531 366.004C624.385 364.714 603.982 354.969 580.393 343.669C532.608 320.804 473.219 292.403 429.72 318.832C410.075 321.449 369.762 377.759 353.227 426.03C341.963 458.906 343.253 482.681 356.981 494.777C365.552 502.361 376.399 505.319 388.762 505.319C410.455 505.319 436.926 496.18 464.345 486.738C503.331 473.277 543.644 459.399 573.756 470.13C639.1 493.374 710.814 501.413 721.433 471.722C725.718 459.285 718.02 450.829 711.269 443.397C703.571 434.941 699.551 429.746 705.732 421.555L706.112 421.062L706.225 420.456C710.321 401.079 745.136 401.079 775.892 401.079C794.627 401.079 812.299 401.079 822.349 396.718C839.681 389.21 851.21 369.909 851.058 348.675C850.944 326.985 838.581 309.011 817.988 300.479ZM820.15 391.447C811.162 395.353 794.058 395.353 775.93 395.353C743.315 395.353 706.415 395.353 700.84 418.635C692.08 430.694 700.044 439.491 707.06 447.226C713.317 454.128 719.233 460.65 716.086 469.864C707.173 494.815 637.696 486.89 575.652 464.821C543.644 453.445 502.383 467.665 462.449 481.43C420.997 495.725 381.86 509.224 360.698 490.568C349.017 480.254 348.259 458.033 358.574 427.926C375.261 379.162 415.233 325.506 430.782 324.52L431.502 324.482L432.109 324.103C443.676 316.936 456.608 314.016 470.261 314.016C504.962 314.016 544.365 332.862 577.89 348.902C601.972 360.429 622.792 370.364 637.962 371.767C661.058 373.853 690.828 356.334 722.305 337.792C756.968 317.391 792.768 296.308 815.713 305.826C834.371 313.561 845.18 329.222 845.331 348.75C845.597 367.634 835.433 384.812 820.15 391.447Z" fill="#7B74DA"/>
<path d="M782.034 316.634C760.38 307.647 729.168 326.038 698.98 343.784C674.443 358.231 648.996 373.172 631.324 371.579C619.415 370.479 602.198 362.251 582.288 352.695C539.775 332.333 486.908 307.003 449.553 334.759C437.19 338.02 404.12 385.268 390.922 423.832C381.782 450.565 383.11 470.131 394.752 480.445C402.034 486.891 411.249 489.394 421.717 489.394C439.996 489.394 462.22 481.734 485.277 473.771C517.93 462.509 551.645 450.868 576.789 459.817C624.308 476.729 671.713 481.658 692.04 471.799C697.691 469.069 701.37 465.239 702.962 460.424C706.489 449.655 699.018 442.071 692.988 436.004C685.29 428.23 681.611 423.794 688.779 415.906L689.196 415.3C696.439 401.118 720.787 401.535 744.376 401.952C760.455 402.218 775.663 402.521 785.713 398.16C800.428 391.79 810.212 375.409 810.06 357.435C809.984 339.082 799.479 323.839 782.034 316.634ZM783.513 392.927C774.601 396.795 760 396.53 744.565 396.264C719.421 395.809 693.443 395.354 684.417 412.38C673.647 424.476 682.18 433.084 689.044 440.023C694.733 445.749 700.08 451.209 697.653 458.641C696.553 461.94 693.861 464.633 689.613 466.68C670.841 475.781 624.232 470.662 578.723 454.47C551.721 444.839 517.02 456.821 483.457 468.387C448.794 480.331 416.066 491.631 398.545 476.16C386.561 465.581 390.315 444.042 395.587 427.851C409.164 386.102 443.788 340.978 450.918 340.296L451.79 340.258L452.473 339.727C487.098 313.411 538.523 338.058 579.86 357.852C600.302 367.635 617.936 376.091 630.868 377.267C650.437 379.049 675.429 364.298 701.901 348.714C730.875 331.65 760.835 314.018 779.873 321.905C795.346 328.313 804.334 341.282 804.448 357.473C804.561 373.209 796.142 387.467 783.513 392.927Z" fill="#7B74DA"/>
</g>
</svg>
