<svg width="31" height="26" viewBox="0 0 31 26" fill="none" xmlns="http://www.w3.org/2000/svg">
<path fill-rule="evenodd" clip-rule="evenodd" d="M26.5555 1.36365C28.4712 2.56715 29.852 4.46154 30.3092 6.59218C30.739 8.60692 30.3824 10.7331 29.2713 12.5071C28.5306 13.6884 23.9082 18.168 15.4085 25.9462L15.3993 25.9551C15.317 26.0175 15.2027 26.0175 15.1159 25.9685L15.0884 25.9507C6.57501 18.168 1.95711 13.6928 1.21642 12.5071C0.105375 10.7331 -0.251256 8.60692 0.178529 6.59218C0.635748 4.46154 2.01655 2.56269 3.93229 1.36365C6.01264 0.0576345 8.66907 -0.330159 11.074 0.276047C12.3085 0.583607 13.4516 1.15415 14.43 1.92083C14.7135 2.1437 14.9787 2.3844 15.2393 2.62955C15.5822 2.31308 15.852 2.07684 16.0486 1.92083C17.0316 1.15415 18.1701 0.583607 19.4046 0.276047C21.8187 -0.325702 24.4751 0.0620919 26.5555 1.36365Z" fill="url(#paint0_linear)"/>
<defs>
<linearGradient id="paint0_linear" x1="5.50718e-07" y1="26.0005" x2="30" y2="3.00049" gradientUnits="userSpaceOnUse">
<stop stop-color="#7877DB"/>
<stop offset="1" stop-color="#59C6F1"/>
</linearGradient>
</defs>
</svg>
