<?xml version="1.0" encoding="UTF-8" standalone="no"?>
<!DOCTYPE svg PUBLIC "-//W3C//DTD SVG 1.1//EN"
 "http://www.w3.org/Graphics/SVG/1.1/DTD/svg11.dtd">
<!-- Generated by graphviz version 2.43.0 (0)
 -->
<!-- Title: %3 Pages: 1 -->
<svg width="316pt" height="260pt"
 viewBox="0.00 0.00 316.03 260.00" xmlns="http://www.w3.org/2000/svg" xmlns:xlink="http://www.w3.org/1999/xlink">
<g id="graph0" class="graph" transform="scale(1 1) rotate(0) translate(4 256)">
<title>%3</title>
<polygon fill="white" stroke="transparent" points="-4,4 -4,-256 312.03,-256 312.03,4 -4,4"/>
<!-- 1 -->
<g id="node1" class="node">
<title>1</title>
<polygon fill="none" stroke="black" stroke-dasharray="1,5" points="110.34,-108 24.34,-108 24.34,-72 110.34,-72 110.34,-108"/>
<text text-anchor="middle" x="67.34" y="-86.3" font-family="Times,serif" font-size="14.00">Customer</text>
</g>
<!-- 5 -->
<g id="node5" class="node">
<title>5</title>
<ellipse fill="#59a14f" stroke="black" cx="142.34" cy="-18" rx="142.17" ry="18"/>
<text text-anchor="middle" x="142.34" y="-14.3" font-family="Times,serif" font-size="14.00" fill="#ffffff">top_10_countries_customers</text>
</g>
<!-- 1&#45;&gt;5 -->
<g id="edge1" class="edge">
<title>1&#45;&gt;5</title>
<path fill="none" stroke="black" d="M85.88,-71.7C95.21,-62.99 106.67,-52.29 116.82,-42.82"/>
<polygon fill="black" stroke="black" points="119.35,-45.24 124.27,-35.86 114.57,-40.13 119.35,-45.24"/>
</g>
<!-- 2 -->
<g id="node2" class="node">
<title>2</title>
<polygon fill="none" stroke="black" stroke-dasharray="1,5" points="252.34,-252 184.34,-252 184.34,-216 252.34,-216 252.34,-252"/>
<text text-anchor="middle" x="218.34" y="-230.3" font-family="Times,serif" font-size="14.00">Invoice</text>
</g>
<!-- 3 -->
<g id="node3" class="node">
<title>3</title>
<ellipse fill="#e15759" stroke="black" cx="218.34" cy="-162" rx="89.88" ry="18"/>
<text text-anchor="middle" x="218.34" y="-158.3" font-family="Times,serif" font-size="14.00" fill="#ffffff">sales_by_country</text>
</g>
<!-- 2&#45;&gt;3 -->
<g id="edge2" class="edge">
<title>2&#45;&gt;3</title>
<path fill="none" stroke="black" d="M218.34,-215.7C218.34,-207.98 218.34,-198.71 218.34,-190.11"/>
<polygon fill="black" stroke="black" points="221.84,-190.1 218.34,-180.1 214.84,-190.1 221.84,-190.1"/>
</g>
<!-- 4 -->
<g id="node4" class="node">
<title>4</title>
<ellipse fill="#76b7b2" stroke="black" cx="218.34" cy="-90" rx="89.88" ry="18"/>
<text text-anchor="middle" x="218.34" y="-86.3" font-family="Times,serif" font-size="14.00" fill="#000000">top_10_countries</text>
</g>
<!-- 3&#45;&gt;4 -->
<g id="edge3" class="edge">
<title>3&#45;&gt;4</title>
<path fill="none" stroke="black" d="M218.34,-143.7C218.34,-135.98 218.34,-126.71 218.34,-118.11"/>
<polygon fill="black" stroke="black" points="221.84,-118.1 218.34,-108.1 214.84,-118.1 221.84,-118.1"/>
</g>
<!-- 4&#45;&gt;5 -->
<g id="edge4" class="edge">
<title>4&#45;&gt;5</title>
<path fill="none" stroke="black" d="M199.94,-72.05C190.49,-63.35 178.81,-52.59 168.44,-43.04"/>
<polygon fill="black" stroke="black" points="170.56,-40.23 160.83,-36.03 165.81,-45.38 170.56,-40.23"/>
</g>
</g>
</svg>
