<?xml version="1.0" encoding="UTF-8" standalone="no"?>
<!DOCTYPE svg PUBLIC "-//W3C//DTD SVG 1.1//EN"
 "http://www.w3.org/Graphics/SVG/1.1/DTD/svg11.dtd">
<!-- Generated by graphviz version 2.43.0 (0)
 -->
<!-- Title: %3 Pages: 1 -->
<svg width="483pt" height="260pt"
 viewBox="0.00 0.00 483.35 260.00" xmlns="http://www.w3.org/2000/svg" xmlns:xlink="http://www.w3.org/1999/xlink">
<g id="graph0" class="graph" transform="scale(1 1) rotate(0) translate(4 256)">
<title>%3</title>
<polygon fill="white" stroke="transparent" points="-4,4 -4,-256 479.35,-256 479.35,4 -4,4"/>
<!-- 1 -->
<g id="node1" class="node">
<title>1</title>
<polygon fill="none" stroke="black" stroke-dasharray="1,5" points="124.66,-252 38.66,-252 38.66,-216 124.66,-216 124.66,-252"/>
<text text-anchor="middle" x="81.66" y="-230.3" font-family="Times,serif" font-size="14.00">Customer</text>
</g>
<!-- 3 -->
<g id="node3" class="node">
<title>3</title>
<ellipse fill="#e15759" stroke="black" cx="145.66" cy="-162" rx="131.88" ry="18"/>
<text text-anchor="middle" x="145.66" y="-158.3" font-family="Times,serif" font-size="14.00" fill="#ffffff">customers_total_purchase</text>
</g>
<!-- 1&#45;&gt;3 -->
<g id="edge1" class="edge">
<title>1&#45;&gt;3</title>
<path fill="none" stroke="black" d="M97.48,-215.7C105.23,-207.22 114.7,-196.86 123.19,-187.58"/>
<polygon fill="black" stroke="black" points="125.86,-189.85 130.02,-180.1 120.69,-185.12 125.86,-189.85"/>
</g>
<!-- 6 -->
<g id="node6" class="node">
<title>6</title>
<ellipse fill="#edc948" stroke="black" cx="166.66" cy="-18" rx="142.17" ry="18"/>
<text text-anchor="middle" x="166.66" y="-14.3" font-family="Times,serif" font-size="14.00" fill="#000000">top_10_countries_customers</text>
</g>
<!-- 1&#45;&gt;6 -->
<g id="edge2" class="edge">
<title>1&#45;&gt;6</title>
<path fill="none" stroke="black" d="M42.39,-215.9C27.8,-207.37 12.82,-195.51 4.66,-180 -2.78,-165.84 0.9,-159.55 4.66,-144 13.12,-109.03 15.3,-96.49 41.66,-72 57.69,-57.11 78.52,-46.05 98.57,-38"/>
<polygon fill="black" stroke="black" points="99.92,-41.24 108.02,-34.4 97.43,-34.7 99.92,-41.24"/>
</g>
<!-- 2 -->
<g id="node2" class="node">
<title>2</title>
<polygon fill="none" stroke="black" stroke-dasharray="1,5" points="242.66,-252 174.66,-252 174.66,-216 242.66,-216 242.66,-252"/>
<text text-anchor="middle" x="208.66" y="-230.3" font-family="Times,serif" font-size="14.00">Invoice</text>
</g>
<!-- 2&#45;&gt;3 -->
<g id="edge3" class="edge">
<title>2&#45;&gt;3</title>
<path fill="none" stroke="black" d="M193.09,-215.7C185.46,-207.22 176.14,-196.86 167.79,-187.58"/>
<polygon fill="black" stroke="black" points="170.35,-185.2 161.06,-180.1 165.14,-189.88 170.35,-185.2"/>
</g>
<!-- 4 -->
<g id="node4" class="node">
<title>4</title>
<ellipse fill="#76b7b2" stroke="black" cx="385.66" cy="-162" rx="89.88" ry="18"/>
<text text-anchor="middle" x="385.66" y="-158.3" font-family="Times,serif" font-size="14.00" fill="#000000">sales_by_country</text>
</g>
<!-- 2&#45;&gt;4 -->
<g id="edge4" class="edge">
<title>2&#45;&gt;4</title>
<path fill="none" stroke="black" d="M242.79,-219.5C269.71,-208.86 307.59,-193.87 337.59,-182.01"/>
<polygon fill="black" stroke="black" points="339.01,-185.21 347.02,-178.28 336.44,-178.7 339.01,-185.21"/>
</g>
<!-- 7 -->
<g id="node7" class="node">
<title>7</title>
<ellipse fill="#b07aa1" stroke="black" cx="145.66" cy="-90" rx="94.78" ry="18"/>
<text text-anchor="middle" x="145.66" y="-86.3" font-family="Times,serif" font-size="14.00" fill="#ffffff">top_20_customers</text>
</g>
<!-- 3&#45;&gt;7 -->
<g id="edge5" class="edge">
<title>3&#45;&gt;7</title>
<path fill="none" stroke="black" d="M145.66,-143.7C145.66,-135.98 145.66,-126.71 145.66,-118.11"/>
<polygon fill="black" stroke="black" points="149.16,-118.1 145.66,-108.1 142.16,-118.1 149.16,-118.1"/>
</g>
<!-- 5 -->
<g id="node5" class="node">
<title>5</title>
<ellipse fill="#59a14f" stroke="black" cx="366.66" cy="-90" rx="89.88" ry="18"/>
<text text-anchor="middle" x="366.66" y="-86.3" font-family="Times,serif" font-size="14.00" fill="#ffffff">top_10_countries</text>
</g>
<!-- 4&#45;&gt;5 -->
<g id="edge6" class="edge">
<title>4&#45;&gt;5</title>
<path fill="none" stroke="black" d="M380.97,-143.7C378.85,-135.9 376.3,-126.51 373.95,-117.83"/>
<polygon fill="black" stroke="black" points="377.3,-116.84 371.31,-108.1 370.55,-118.67 377.3,-116.84"/>
</g>
<!-- 5&#45;&gt;6 -->
<g id="edge7" class="edge">
<title>5&#45;&gt;6</title>
<path fill="none" stroke="black" d="M323.76,-73.98C294.11,-63.61 254.4,-49.71 222.32,-38.48"/>
<polygon fill="black" stroke="black" points="223.23,-35.09 212.63,-35.09 220.91,-41.7 223.23,-35.09"/>
</g>
</g>
</svg>
